<mxfile host="app.diagrams.net" modified="2023-10-16T21:00:30.165Z" agent="Mozilla/5.0 (Windows NT 10.0; Win64; x64) AppleWebKit/537.36 (KHTML, like Gecko) Chrome/118.0.0.0 Safari/537.36" etag="-Qst_z0bZjC7H1VjIXe7" version="22.0.4" type="github">
  <diagram name="Page-1" id="19d8dcba-68ad-dc05-1034-9cf7b2a963f6">
    <mxGraphModel dx="3329" dy="1060" grid="1" gridSize="10" guides="1" tooltips="1" connect="1" arrows="1" fold="1" page="1" pageScale="1" pageWidth="1100" pageHeight="850" background="none" math="0" shadow="0">
      <root>
        <mxCell id="0" />
        <mxCell id="1" parent="0" />
        <mxCell id="218ae93e1282097f-12" value="Miami&amp;nbsp;" style="whiteSpace=wrap;html=1;rounded=1;shadow=0;comic=0;strokeWidth=2;fontFamily=Verdana;align=center;fontSize=10;" parent="1" vertex="1">
          <mxGeometry x="-990" y="660" width="280" height="50" as="geometry" />
        </mxCell>
        <mxCell id="TH0M8ejJbZos6mJaKVJH-17" style="edgeStyle=orthogonalEdgeStyle;rounded=0;orthogonalLoop=1;jettySize=auto;html=1;exitX=1;exitY=0.75;exitDx=0;exitDy=0;entryX=0.75;entryY=0;entryDx=0;entryDy=0;" edge="1" parent="1" source="218ae93e1282097f-19" target="6257edae8c83ed4a-1">
          <mxGeometry relative="1" as="geometry" />
        </mxCell>
        <mxCell id="218ae93e1282097f-19" value="&lt;font style=&quot;font-size: 21px;&quot;&gt;&lt;b&gt;ASSETS&lt;/b&gt;&lt;/font&gt;" style="whiteSpace=wrap;html=1;rounded=1;shadow=0;comic=0;strokeWidth=2;fontFamily=Verdana;align=center;fontSize=10;arcSize=0;" parent="1" vertex="1">
          <mxGeometry x="-1020" y="70" width="280" height="100" as="geometry" />
        </mxCell>
        <mxCell id="218ae93e1282097f-24" value="" style="whiteSpace=wrap;html=1;rounded=1;shadow=0;comic=0;strokeWidth=2;fontFamily=Verdana;align=center;fontSize=10;" parent="1" vertex="1">
          <mxGeometry x="635" y="220" width="223" height="130" as="geometry" />
        </mxCell>
        <mxCell id="218ae93e1282097f-29" value="" style="whiteSpace=wrap;html=1;rounded=1;shadow=0;comic=0;strokeWidth=2;fontFamily=Verdana;align=center;fontSize=10;" parent="1" vertex="1">
          <mxGeometry x="1197" y="440" width="300" height="130" as="geometry" />
        </mxCell>
        <mxCell id="218ae93e1282097f-34" value="" style="whiteSpace=wrap;html=1;rounded=1;shadow=0;comic=0;strokeWidth=2;fontFamily=Verdana;align=center;fontSize=10;" parent="1" vertex="1">
          <mxGeometry x="1600" y="440" width="410" height="130" as="geometry" />
        </mxCell>
        <mxCell id="218ae93e1282097f-35" value="Name" style="shape=actor;whiteSpace=wrap;html=1;rounded=0;shadow=0;comic=0;strokeWidth=1;fillColor=#CCCCCC;fontFamily=Verdana;align=center;strokeColor=none;labelPosition=center;verticalLabelPosition=bottom;verticalAlign=top;fontSize=10;" parent="1" vertex="1">
          <mxGeometry x="1643" y="450" width="24" height="30" as="geometry" />
        </mxCell>
        <mxCell id="218ae93e1282097f-37" value="Name" style="shape=actor;whiteSpace=wrap;html=1;rounded=0;shadow=0;comic=0;strokeWidth=1;fillColor=#CCCCCC;fontFamily=Verdana;align=center;strokeColor=none;labelPosition=center;verticalLabelPosition=bottom;verticalAlign=top;fontSize=10;" parent="1" vertex="1">
          <mxGeometry x="1743" y="450" width="24" height="30" as="geometry" />
        </mxCell>
        <mxCell id="218ae93e1282097f-38" value="Name" style="shape=actor;whiteSpace=wrap;html=1;rounded=0;shadow=0;comic=0;strokeWidth=1;fillColor=#CCCCCC;fontFamily=Verdana;align=center;strokeColor=none;labelPosition=center;verticalLabelPosition=bottom;verticalAlign=top;fontSize=10;" parent="1" vertex="1">
          <mxGeometry x="1843" y="450" width="24" height="30" as="geometry" />
        </mxCell>
        <mxCell id="218ae93e1282097f-41" value="Name" style="shape=actor;whiteSpace=wrap;html=1;rounded=0;shadow=0;comic=0;strokeWidth=1;fillColor=#CCCCCC;fontFamily=Verdana;align=center;strokeColor=none;labelPosition=center;verticalLabelPosition=bottom;verticalAlign=top;fontSize=10;" parent="1" vertex="1">
          <mxGeometry x="1943" y="450" width="24" height="30" as="geometry" />
        </mxCell>
        <mxCell id="218ae93e1282097f-71" value="Name" style="shape=actor;whiteSpace=wrap;html=1;rounded=0;shadow=0;comic=0;strokeWidth=1;fillColor=#CCCCCC;fontFamily=Verdana;align=center;strokeColor=none;labelPosition=center;verticalLabelPosition=bottom;verticalAlign=top;fontSize=10;" parent="1" vertex="1">
          <mxGeometry x="1327" y="450" width="24" height="30" as="geometry" />
        </mxCell>
        <mxCell id="218ae93e1282097f-72" value="Name" style="shape=actor;whiteSpace=wrap;html=1;rounded=0;shadow=0;comic=0;strokeWidth=1;fillColor=#CCCCCC;fontFamily=Verdana;align=center;strokeColor=none;labelPosition=center;verticalLabelPosition=bottom;verticalAlign=top;fontSize=10;" parent="1" vertex="1">
          <mxGeometry x="1435" y="450" width="24" height="30" as="geometry" />
        </mxCell>
        <mxCell id="218ae93e1282097f-73" value="Name" style="shape=actor;whiteSpace=wrap;html=1;rounded=0;shadow=0;comic=0;strokeWidth=1;fillColor=#CCCCCC;fontFamily=Verdana;align=center;strokeColor=none;labelPosition=center;verticalLabelPosition=bottom;verticalAlign=top;fontSize=10;" parent="1" vertex="1">
          <mxGeometry x="1235" y="450" width="24" height="30" as="geometry" />
        </mxCell>
        <mxCell id="218ae93e1282097f-74" value="Position 1" style="text;html=1;strokeColor=none;fillColor=none;align=center;verticalAlign=middle;whiteSpace=wrap;rounded=1;shadow=0;comic=0;fontFamily=Verdana;fontSize=10;" parent="1" vertex="1">
          <mxGeometry x="1202" y="505" width="90" height="25" as="geometry" />
        </mxCell>
        <mxCell id="218ae93e1282097f-75" value="Position 1" style="text;html=1;strokeColor=none;fillColor=none;align=center;verticalAlign=middle;whiteSpace=wrap;rounded=1;shadow=0;comic=0;fontFamily=Verdana;fontSize=10;" parent="1" vertex="1">
          <mxGeometry x="1302" y="505" width="90" height="25" as="geometry" />
        </mxCell>
        <mxCell id="218ae93e1282097f-76" value="Position 1" style="text;html=1;strokeColor=none;fillColor=none;align=center;verticalAlign=middle;whiteSpace=wrap;rounded=1;shadow=0;comic=0;fontFamily=Verdana;fontSize=10;" parent="1" vertex="1">
          <mxGeometry x="1402" y="505" width="90" height="25" as="geometry" />
        </mxCell>
        <mxCell id="218ae93e1282097f-77" value="Position 2" style="text;html=1;strokeColor=none;fillColor=none;align=center;verticalAlign=middle;whiteSpace=wrap;rounded=1;shadow=0;comic=0;fontFamily=Verdana;fontSize=10;" parent="1" vertex="1">
          <mxGeometry x="1202" y="540" width="90" height="25" as="geometry" />
        </mxCell>
        <mxCell id="218ae93e1282097f-78" value="Position 2" style="text;html=1;strokeColor=none;fillColor=none;align=center;verticalAlign=middle;whiteSpace=wrap;rounded=1;shadow=0;comic=0;fontFamily=Verdana;fontSize=10;" parent="1" vertex="1">
          <mxGeometry x="1302" y="540" width="90" height="25" as="geometry" />
        </mxCell>
        <mxCell id="218ae93e1282097f-79" value="Position 3" style="text;html=1;strokeColor=none;fillColor=none;align=center;verticalAlign=middle;whiteSpace=wrap;rounded=1;shadow=0;comic=0;fontFamily=Verdana;fontSize=10;" parent="1" vertex="1">
          <mxGeometry x="1402" y="540" width="90" height="25" as="geometry" />
        </mxCell>
        <mxCell id="218ae93e1282097f-80" value="Position 1" style="text;html=1;strokeColor=none;fillColor=none;align=center;verticalAlign=middle;whiteSpace=wrap;rounded=1;shadow=0;comic=0;fontFamily=Verdana;fontSize=10;" parent="1" vertex="1">
          <mxGeometry x="1610" y="505" width="90" height="25" as="geometry" />
        </mxCell>
        <mxCell id="218ae93e1282097f-81" value="Position 1" style="text;html=1;strokeColor=none;fillColor=none;align=center;verticalAlign=middle;whiteSpace=wrap;rounded=1;shadow=0;comic=0;fontFamily=Verdana;fontSize=10;" parent="1" vertex="1">
          <mxGeometry x="1710" y="505" width="90" height="25" as="geometry" />
        </mxCell>
        <mxCell id="218ae93e1282097f-82" value="Position 1" style="text;html=1;strokeColor=none;fillColor=none;align=center;verticalAlign=middle;whiteSpace=wrap;rounded=1;shadow=0;comic=0;fontFamily=Verdana;fontSize=10;" parent="1" vertex="1">
          <mxGeometry x="1810" y="505" width="90" height="25" as="geometry" />
        </mxCell>
        <mxCell id="218ae93e1282097f-83" value="Position 2" style="text;html=1;strokeColor=none;fillColor=none;align=center;verticalAlign=middle;whiteSpace=wrap;rounded=1;shadow=0;comic=0;fontFamily=Verdana;fontSize=10;" parent="1" vertex="1">
          <mxGeometry x="1610" y="540" width="90" height="25" as="geometry" />
        </mxCell>
        <mxCell id="218ae93e1282097f-84" value="Position 2" style="text;html=1;strokeColor=none;fillColor=none;align=center;verticalAlign=middle;whiteSpace=wrap;rounded=1;shadow=0;comic=0;fontFamily=Verdana;fontSize=10;" parent="1" vertex="1">
          <mxGeometry x="1710" y="540" width="90" height="25" as="geometry" />
        </mxCell>
        <mxCell id="218ae93e1282097f-85" value="Position 3" style="text;html=1;strokeColor=none;fillColor=none;align=center;verticalAlign=middle;whiteSpace=wrap;rounded=1;shadow=0;comic=0;fontFamily=Verdana;fontSize=10;" parent="1" vertex="1">
          <mxGeometry x="1810" y="540" width="90" height="25" as="geometry" />
        </mxCell>
        <mxCell id="218ae93e1282097f-86" value="Position 1" style="text;html=1;strokeColor=none;fillColor=none;align=center;verticalAlign=middle;whiteSpace=wrap;rounded=1;shadow=0;comic=0;fontFamily=Verdana;fontSize=10;" parent="1" vertex="1">
          <mxGeometry x="1910" y="505" width="90" height="25" as="geometry" />
        </mxCell>
        <mxCell id="218ae93e1282097f-87" value="Position 3" style="text;html=1;strokeColor=none;fillColor=none;align=center;verticalAlign=middle;whiteSpace=wrap;rounded=1;shadow=0;comic=0;fontFamily=Verdana;fontSize=10;" parent="1" vertex="1">
          <mxGeometry x="1910" y="540" width="90" height="25" as="geometry" />
        </mxCell>
        <mxCell id="218ae93e1282097f-8" value="" style="whiteSpace=wrap;html=1;rounded=1;shadow=0;comic=0;strokeWidth=2;fontFamily=Verdana;align=center;fontSize=12;fontStyle=1" parent="1" vertex="1">
          <mxGeometry x="278.75" y="150" width="207.5" height="50" as="geometry" />
        </mxCell>
        <mxCell id="6257edae8c83ed4a-9" value="A" style="whiteSpace=wrap;html=1;rounded=1;shadow=0;comic=0;strokeWidth=2;fontFamily=Verdana;align=center;fontSize=12;fontStyle=1" parent="1" vertex="1">
          <mxGeometry x="280" y="280" width="200" height="50" as="geometry" />
        </mxCell>
        <mxCell id="6257edae8c83ed4a-21" value="Name&lt;div&gt;&lt;span&gt;Position&lt;/span&gt;&lt;/div&gt;" style="whiteSpace=wrap;html=1;rounded=1;shadow=0;comic=0;strokeWidth=2;fontFamily=Verdana;align=center;fontSize=12;fontStyle=1" parent="1" vertex="1">
          <mxGeometry x="280" y="400" width="200" height="50" as="geometry" />
        </mxCell>
        <mxCell id="6257edae8c83ed4a-12" value="Name&lt;div&gt;&lt;span&gt;Position&lt;/span&gt;&lt;/div&gt;" style="whiteSpace=wrap;html=1;rounded=1;shadow=0;comic=0;strokeWidth=2;fontFamily=Verdana;align=center;fontSize=12;fontStyle=1" parent="1" vertex="1">
          <mxGeometry x="280" y="520" width="200" height="50" as="geometry" />
        </mxCell>
        <mxCell id="TH0M8ejJbZos6mJaKVJH-13" style="edgeStyle=orthogonalEdgeStyle;rounded=0;orthogonalLoop=1;jettySize=auto;html=1;" edge="1" parent="1" source="6257edae8c83ed4a-1" target="TH0M8ejJbZos6mJaKVJH-12">
          <mxGeometry relative="1" as="geometry" />
        </mxCell>
        <mxCell id="6257edae8c83ed4a-1" value="&lt;font style=&quot;font-size: 20px;&quot;&gt;items available&lt;/font&gt;" style="whiteSpace=wrap;html=1;rounded=1;shadow=0;comic=0;strokeWidth=2;fontFamily=Verdana;align=center;fontSize=12;fontStyle=1;arcSize=29;" parent="1" vertex="1">
          <mxGeometry x="-1030" y="280" width="330" height="100" as="geometry" />
        </mxCell>
        <mxCell id="218ae93e1282097f-2" value="Name&lt;div&gt;&lt;span&gt;Position&lt;/span&gt;&lt;/div&gt;" style="whiteSpace=wrap;html=1;rounded=1;shadow=0;comic=0;strokeWidth=2;fontFamily=Verdana;align=center;fontSize=12;fontStyle=1" parent="1" vertex="1">
          <mxGeometry x="1247" y="210" width="200" height="50" as="geometry" />
        </mxCell>
        <mxCell id="6257edae8c83ed4a-24" value="Name&lt;div&gt;&lt;span&gt;Position&lt;/span&gt;&lt;/div&gt;" style="whiteSpace=wrap;html=1;rounded=1;shadow=0;comic=0;strokeWidth=2;fontFamily=Verdana;align=center;fontSize=12;fontStyle=1" parent="1" vertex="1">
          <mxGeometry x="1259" y="360" width="200" height="50" as="geometry" />
        </mxCell>
        <mxCell id="218ae93e1282097f-5" value="Name&lt;div&gt;&lt;span&gt;Position&lt;/span&gt;&lt;/div&gt;" style="whiteSpace=wrap;html=1;rounded=1;shadow=0;comic=0;strokeWidth=2;fontFamily=Verdana;align=center;fontSize=12;fontStyle=1" parent="1" vertex="1">
          <mxGeometry x="1680" y="360" width="200" height="50" as="geometry" />
        </mxCell>
        <mxCell id="TH0M8ejJbZos6mJaKVJH-8" value="Name&lt;div&gt;&lt;span&gt;Position&lt;/span&gt;&lt;/div&gt;" style="whiteSpace=wrap;html=1;rounded=1;shadow=0;comic=0;strokeWidth=2;fontFamily=Verdana;align=center;fontSize=12;fontStyle=1" vertex="1" parent="1">
          <mxGeometry x="278.75" y="640" width="200" height="50" as="geometry" />
        </mxCell>
        <mxCell id="TH0M8ejJbZos6mJaKVJH-18" style="edgeStyle=orthogonalEdgeStyle;rounded=0;orthogonalLoop=1;jettySize=auto;html=1;exitX=0.5;exitY=1;exitDx=0;exitDy=0;" edge="1" parent="1" source="TH0M8ejJbZos6mJaKVJH-12">
          <mxGeometry relative="1" as="geometry">
            <mxPoint x="-860" y="660" as="targetPoint" />
          </mxGeometry>
        </mxCell>
        <mxCell id="TH0M8ejJbZos6mJaKVJH-12" value="&lt;font style=&quot;font-size: 20px;&quot;&gt;LOCATION&lt;/font&gt;" style="whiteSpace=wrap;html=1;rounded=1;shadow=0;comic=0;strokeWidth=2;fontFamily=Verdana;align=center;fontSize=12;fontStyle=1;arcSize=50;" vertex="1" parent="1">
          <mxGeometry x="-1030" y="507.5" width="320" height="90" as="geometry" />
        </mxCell>
      </root>
    </mxGraphModel>
  </diagram>
</mxfile>
